<mxfile host="app.diagrams.net" agent="Mozilla/5.0 (Windows NT 10.0; Win64; x64) AppleWebKit/537.36 (KHTML, like Gecko) Chrome/124.0.0.0 YaBrowser/24.6.0.0 Safari/537.36" version="24.8.3">
  <diagram name="Страница — 1" id="rMYFsLWV7r7OFdGUvmJx">
    <mxGraphModel dx="1687" dy="902" grid="1" gridSize="10" guides="1" tooltips="1" connect="1" arrows="1" fold="1" page="1" pageScale="1" pageWidth="827" pageHeight="1169" math="0" shadow="0">
      <root>
        <mxCell id="0" />
        <mxCell id="1" parent="0" />
        <mxCell id="_4HUosIxxn5lNKMiFvOn-5" style="edgeStyle=orthogonalEdgeStyle;rounded=0;orthogonalLoop=1;jettySize=auto;html=1;" parent="1" source="_4HUosIxxn5lNKMiFvOn-3" edge="1">
          <mxGeometry relative="1" as="geometry">
            <mxPoint x="410" y="220" as="targetPoint" />
          </mxGeometry>
        </mxCell>
        <mxCell id="_4HUosIxxn5lNKMiFvOn-3" value="&lt;font style=&quot;font-size: 14px;&quot;&gt;Начало&lt;/font&gt;" style="strokeWidth=2;html=1;shape=mxgraph.flowchart.terminator;whiteSpace=wrap;fontFamily=Times New Roman;" parent="1" vertex="1">
          <mxGeometry x="320" y="110" width="180" height="60" as="geometry" />
        </mxCell>
        <mxCell id="GaoTr9ZYjVp9Sk7vG3r4-1" style="edgeStyle=orthogonalEdgeStyle;rounded=0;orthogonalLoop=1;jettySize=auto;html=1;" parent="1" source="_4HUosIxxn5lNKMiFvOn-6" edge="1">
          <mxGeometry relative="1" as="geometry">
            <mxPoint x="405" y="330" as="targetPoint" />
          </mxGeometry>
        </mxCell>
        <mxCell id="_4HUosIxxn5lNKMiFvOn-6" value="Вводим символы &#39;a&#39; or &#39;b&#39;" style="shape=parallelogram;html=1;strokeWidth=2;perimeter=parallelogramPerimeter;whiteSpace=wrap;rounded=1;arcSize=12;size=0.23;fontFamily=Times New Roman;" parent="1" vertex="1">
          <mxGeometry x="290" y="220" width="230" height="70" as="geometry" />
        </mxCell>
        <mxCell id="GaoTr9ZYjVp9Sk7vG3r4-4" style="edgeStyle=orthogonalEdgeStyle;rounded=0;orthogonalLoop=1;jettySize=auto;html=1;" parent="1" source="GaoTr9ZYjVp9Sk7vG3r4-2" target="GaoTr9ZYjVp9Sk7vG3r4-3" edge="1">
          <mxGeometry relative="1" as="geometry" />
        </mxCell>
        <mxCell id="GaoTr9ZYjVp9Sk7vG3r4-2" value="Считывание: c = ввод символа" style="rounded=1;whiteSpace=wrap;html=1;absoluteArcSize=1;arcSize=14;strokeWidth=2;" parent="1" vertex="1">
          <mxGeometry x="330" y="330" width="150" height="90" as="geometry" />
        </mxCell>
        <mxCell id="GaoTr9ZYjVp9Sk7vG3r4-5" style="edgeStyle=orthogonalEdgeStyle;rounded=0;orthogonalLoop=1;jettySize=auto;html=1;" parent="1" source="GaoTr9ZYjVp9Sk7vG3r4-3" edge="1">
          <mxGeometry relative="1" as="geometry">
            <mxPoint x="405" y="580" as="targetPoint" />
          </mxGeometry>
        </mxCell>
        <mxCell id="GaoTr9ZYjVp9Sk7vG3r4-3" value="Проверка значения c:" style="rounded=1;whiteSpace=wrap;html=1;absoluteArcSize=1;arcSize=14;strokeWidth=2;" parent="1" vertex="1">
          <mxGeometry x="330" y="460" width="150" height="80" as="geometry" />
        </mxCell>
        <mxCell id="GaoTr9ZYjVp9Sk7vG3r4-7" style="edgeStyle=orthogonalEdgeStyle;rounded=0;orthogonalLoop=1;jettySize=auto;html=1;entryX=0.575;entryY=0;entryDx=0;entryDy=0;entryPerimeter=0;" parent="1" source="GaoTr9ZYjVp9Sk7vG3r4-6" edge="1" target="wNIXDOWxuBbDK5gjLMKb-2">
          <mxGeometry relative="1" as="geometry">
            <mxPoint x="580" y="635" as="targetPoint" />
          </mxGeometry>
        </mxCell>
        <mxCell id="GaoTr9ZYjVp9Sk7vG3r4-8" style="edgeStyle=orthogonalEdgeStyle;rounded=0;orthogonalLoop=1;jettySize=auto;html=1;entryX=0.5;entryY=0;entryDx=0;entryDy=0;" parent="1" source="GaoTr9ZYjVp9Sk7vG3r4-6" edge="1" target="wNIXDOWxuBbDK5gjLMKb-1">
          <mxGeometry relative="1" as="geometry">
            <mxPoint x="230" y="635" as="targetPoint" />
            <Array as="points">
              <mxPoint x="260" y="635" />
            </Array>
          </mxGeometry>
        </mxCell>
        <mxCell id="GaoTr9ZYjVp9Sk7vG3r4-6" value="Если c == &#39;a&#39;:" style="strokeWidth=2;html=1;shape=mxgraph.flowchart.decision;whiteSpace=wrap;" parent="1" vertex="1">
          <mxGeometry x="330" y="585" width="150" height="100" as="geometry" />
        </mxCell>
        <mxCell id="wNIXDOWxuBbDK5gjLMKb-1" value="Вывод: &quot;Введено &#39;a&#39;.&quot;" style="rounded=0;whiteSpace=wrap;html=1;" vertex="1" parent="1">
          <mxGeometry x="190" y="790" width="140" height="60" as="geometry" />
        </mxCell>
        <mxCell id="wNIXDOWxuBbDK5gjLMKb-3" style="edgeStyle=orthogonalEdgeStyle;rounded=0;orthogonalLoop=1;jettySize=auto;html=1;exitX=0.569;exitY=1.017;exitDx=0;exitDy=0;exitPerimeter=0;" edge="1" parent="1" source="wNIXDOWxuBbDK5gjLMKb-2">
          <mxGeometry relative="1" as="geometry">
            <mxPoint x="584" y="790" as="targetPoint" />
          </mxGeometry>
        </mxCell>
        <mxCell id="wNIXDOWxuBbDK5gjLMKb-2" value="Если c == &#39;b&#39;:" style="rounded=0;whiteSpace=wrap;html=1;" vertex="1" parent="1">
          <mxGeometry x="510" y="670" width="130" height="60" as="geometry" />
        </mxCell>
        <mxCell id="wNIXDOWxuBbDK5gjLMKb-4" value="Вывод: &quot;Введено &#39;b&#39;.&quot;" style="rounded=0;whiteSpace=wrap;html=1;" vertex="1" parent="1">
          <mxGeometry x="520" y="790" width="130" height="60" as="geometry" />
        </mxCell>
        <mxCell id="wNIXDOWxuBbDK5gjLMKb-8" value="" style="strokeWidth=2;html=1;shape=mxgraph.flowchart.annotation_2;align=left;labelPosition=right;pointerEvents=1;rotation=-90;" vertex="1" parent="1">
          <mxGeometry x="400" y="710" width="50" height="335" as="geometry" />
        </mxCell>
        <mxCell id="wNIXDOWxuBbDK5gjLMKb-12" style="edgeStyle=orthogonalEdgeStyle;rounded=0;orthogonalLoop=1;jettySize=auto;html=1;" edge="1" parent="1" source="wNIXDOWxuBbDK5gjLMKb-11">
          <mxGeometry relative="1" as="geometry">
            <mxPoint x="420" y="1040" as="targetPoint" />
          </mxGeometry>
        </mxCell>
        <mxCell id="wNIXDOWxuBbDK5gjLMKb-11" value="Вывод: &quot;Неизвестный символ&quot;" style="rounded=0;whiteSpace=wrap;html=1;" vertex="1" parent="1">
          <mxGeometry x="330" y="900" width="180" height="60" as="geometry" />
        </mxCell>
        <mxCell id="wNIXDOWxuBbDK5gjLMKb-13" value="&lt;font style=&quot;font-size: 14px;&quot;&gt;Конец&lt;/font&gt;" style="strokeWidth=2;html=1;shape=mxgraph.flowchart.terminator;whiteSpace=wrap;fontFamily=Times New Roman;" vertex="1" parent="1">
          <mxGeometry x="330" y="1040" width="180" height="60" as="geometry" />
        </mxCell>
        <mxCell id="wNIXDOWxuBbDK5gjLMKb-14" value="Нет" style="text;strokeColor=none;fillColor=none;html=1;fontSize=24;fontStyle=1;verticalAlign=middle;align=center;" vertex="1" parent="1">
          <mxGeometry x="560" y="585" width="50" height="40" as="geometry" />
        </mxCell>
      </root>
    </mxGraphModel>
  </diagram>
</mxfile>
